<?xml version="1.0" encoding="utf-8"?>
<!-- Generator: Adobe Illustrator 19.0.0, SVG Export Plug-In . SVG Version: 6.00 Build 0)  -->
<svg version="1.1" id="Layer_1" xmlns="http://www.w3.org/2000/svg" xmlns:xlink="http://www.w3.org/1999/xlink" x="0px" y="0px"
	 width="66px" height="53px" viewBox="-272 370 66 53" style="enable-background:new -272 370 66 53;" xml:space="preserve">
<path style="fill:#343434;" d="M-206,384.6l-3.3,34.7c-0.2,2.1-2.2,3.7-4.4,3.7c-0.1,0-0.3,0-0.4,0l-50.8-5.6
	c-2.3-0.2-3.9-2.1-3.9-4.3c-1.8-0.5-3.2-2.2-3.2-4.1v-23.8v-8.7v-2.2c0-2.4,2-4.3,4.4-4.3h50.6c2.4,0,4.4,1.9,4.4,4.3v2.2v3l2.6,0.3
	c1.2,0.1,2.2,0.6,3,1.6C-206.2,382.3-205.9,383.5-206,384.6z M-214.8,374.3c0-1.2-1-2.2-2.2-2.2h-50.6c-1.2,0-2.2,1-2.2,2.2v1.1h55
	V374.3z M-214.8,380.4v-2.8h-55v6.5h55V380.4z M-214.8,386.2h-55v22.7c0,1.2,1,2.2,2.2,2.2h0.1h50.5c1.2,0,2.2-1,2.2-2.2V386.2z
	 M-208.7,382.5c-0.3-0.4-0.9-0.8-1.4-0.8l-2.5-0.2v3.6v23.8c0,2.4-2,4.3-4.4,4.3h-49.6c0.1,1,0.9,1.8,2,1.9l50.7,5.6
	c1.2,0.1,2.3-0.8,2.4-1.9l3.3-34.7C-208.1,383.6-208.3,383-208.7,382.5z M-219.2,406.8h-17.6c-0.7,0-1.1-0.4-1.1-1.1V396
	c0-0.6,0.4-1.1,1.1-1.1h17.6c0.7,0,1.1,0.4,1.1,1.1v9.7C-218.1,406.3-218.6,406.8-219.2,406.8z M-220.3,397h-15.4v7.6h15.4V397z
	 M-244.5,392.7h-8.8c-0.7,0-1.1-0.4-1.1-1.1c0-0.6,0.4-1.1,1.1-1.1h8.8c0.7,0,1.1,0.4,1.1,1.1C-243.4,392.3-243.8,392.7-244.5,392.7
	z M-257.7,392.7h-8.8c-0.7,0-1.1-0.4-1.1-1.1c0-0.6,0.4-1.1,1.1-1.1h8.8c0.7,0,1.1,0.4,1.1,1.1C-256.6,392.3-257,392.7-257.7,392.7z
	 M-266.5,394.9h14.3c0.7,0,1.1,0.4,1.1,1.1c0,0.6-0.4,1.1-1.1,1.1h-14.3c-0.7,0-1.1-0.4-1.1-1.1
	C-267.6,395.3-267.2,394.9-266.5,394.9z M-247.8,394.9h3.3c0.7,0,1.1,0.4,1.1,1.1c0,0.6-0.4,1.1-1.1,1.1h-3.3
	c-0.7,0-1.1-0.4-1.1-1.1C-248.9,395.3-248.5,394.9-247.8,394.9z"/>
</svg>
