<?xml version="1.0" encoding="utf-8"?>
<!-- Generator: Adobe Illustrator 19.0.0, SVG Export Plug-In . SVG Version: 6.00 Build 0)  -->
<svg version="1.1" id="Layer_1" xmlns="http://www.w3.org/2000/svg" xmlns:xlink="http://www.w3.org/1999/xlink" x="0px" y="0px"
	 width="50px" height="62px" viewBox="-280 366 50 62" style="enable-background:new -280 366 50 62;" xml:space="preserve">
<path style="fill:#343434;" d="M-233.8,395.6c-0.1,0.1-0.3,0.2-0.4,0.3v23.1c1.2,0.4,2.1,1.6,2.1,3c0,0.2,0,0.5-0.1,0.7
	c0.5,0.6,0.8,1.3,0.8,2.1c0,0.4-0.1,0.7-0.2,1.1h0.5c0.6,0,1.1,0.5,1.1,1.1c0,0.6-0.5,1.1-1.1,1.1h-47.9c-0.6,0-1.1-0.5-1.1-1.1
	c0-0.6,0.5-1.1,1.1-1.1h0.5c-0.1-0.3-0.2-0.7-0.2-1.1c0-0.8,0.3-1.5,0.8-2.1c-0.1-0.2-0.1-0.5-0.1-0.7c0-1.4,0.9-2.6,2.1-3v-23.1
	c-0.1-0.1-0.3-0.1-0.4-0.3l-3.5-3.6c-0.4-0.4-0.4-1.1,0-1.5l3.9-4v-8.1c0-0.6,0.5-1.1,1.1-1.1h4.2c0.6,0,1.1,0.5,1.1,1.1v1.7
	l13.7-13.9c0.4-0.4,1.1-0.4,1.5,0l23.9,24.2c0.4,0.4,0.4,1.1,0,1.5L-233.8,395.6z M-241.6,425.9h7c0.6,0,1.1-0.5,1.1-1.1
	c0-0.4-0.2-0.7-0.5-0.9c-0.5-0.3-0.6-0.9-0.4-1.4c0.1-0.2,0.1-0.3,0.1-0.5c0-0.6-0.5-1.1-1.1-1.1c-0.3,0-0.6,0.1-0.7,0.3
	c-0.4,0.4-1,0.4-1.4,0c-0.1-0.1-0.4-0.3-0.7-0.3c-0.3,0-0.6,0.1-0.7,0.3c-0.4,0.4-1,0.4-1.4,0c-0.1-0.1-0.4-0.3-0.7-0.3
	c-0.6,0-1.1,0.5-1.1,1.1c0,0.2,0,0.4,0.1,0.5c0.3,0.5,0.1,1.1-0.4,1.4c-0.3,0.2-0.5,0.5-0.5,0.9
	C-242.7,425.4-242.2,425.9-241.6,425.9z M-258.2,425.9h2.1v-3.2c0-0.6,0.5-1.1,1.1-1.1c0.6,0,1.1,0.5,1.1,1.1v3.2h2.1v-6.4h-6.3
	V425.9z M-266,422.7c0.5,0.6,0.8,1.3,0.8,2.1c0,0.4-0.1,0.7-0.2,1.1h5.1v-7.5c0-0.6,0.5-1.1,1.1-1.1h8.4c0.6,0,1.1,0.5,1.1,1.1v7.5
	h5.1c-0.1-0.3-0.2-0.7-0.2-1.1c0-0.8,0.3-1.5,0.8-2.1c-0.1-0.2-0.1-0.5-0.1-0.7c0-1.8,1.4-3.2,3.2-3.2c0.5,0,1,0.1,1.4,0.3
	c0.4-0.2,0.9-0.3,1.4-0.3s1,0.1,1.4,0.3c0.1-0.1,0.2-0.1,0.4-0.2v-24.3l-18.7-18.9l-18.7,18.9v24.3c0.1,0,0.2,0.1,0.4,0.2
	c0.4-0.2,0.9-0.3,1.4-0.3c0.5,0,1,0.1,1.4,0.3c0.4-0.2,0.9-0.3,1.4-0.3c1.7,0,3.2,1.4,3.2,3.2C-265.9,422.2-265.9,422.4-266,422.7z
	 M-276,423.9c-0.3,0.2-0.5,0.5-0.5,0.9c0,0.6,0.5,1.1,1.1,1.1h7c0.6,0,1.1-0.5,1.1-1.1c0-0.4-0.2-0.7-0.5-0.9
	c-0.5-0.3-0.6-0.9-0.4-1.4c0.1-0.2,0.1-0.3,0.1-0.5c0-0.6-0.5-1.1-1.1-1.1c-0.3,0-0.6,0.1-0.7,0.3c-0.4,0.4-1,0.4-1.4,0
	c-0.1-0.1-0.4-0.3-0.7-0.3c-0.3,0-0.6,0.1-0.7,0.3c-0.4,0.4-1,0.4-1.4,0c-0.1-0.1-0.4-0.3-0.7-0.3c-0.6,0-1.1,0.5-1.1,1.1
	c0,0.2,0,0.4,0.1,0.5C-275.4,423-275.5,423.6-276,423.9z M-271.6,379.5h-2.1v4.9l2.1-2.1V379.5z M-255,368.6l-14.7,14.9l0,0
	l-4.2,4.3c0,0,0,0,0,0l-3.5,3.5l2,2.1l19.7-19.9c0.2-0.2,0.5-0.3,0.7-0.3s0.5,0.1,0.7,0.3l19.7,19.9l2-2.1L-255,368.6z
	 M-270.7,412.7c0-0.6,0.5-1.1,1.1-1.1h0.4V407c0-0.6,0.5-1.1,1.1-1.1h4.2c0.6,0,1.1,0.5,1.1,1.1v4.6h0.4c0.6,0,1.1,0.5,1.1,1.1
	c0,0.6-0.5,1.1-1.1,1.1h-7C-270.2,413.7-270.7,413.3-270.7,412.7z M-267.2,411.6h2.1V408h-2.1V411.6z M-262.6,402.3h-7
	c-0.6,0-1.1-0.5-1.1-1.1c0-0.6,0.5-1.1,1.1-1.1h0.4v-4.6c0-0.6,0.5-1.1,1.1-1.1h4.2c0.6,0,1.1,0.5,1.1,1.1v4.6h0.4
	c0.6,0,1.1,0.5,1.1,1.1S-262,402.3-262.6,402.3z M-265.1,396.6h-2.1v3.6h2.1V396.6z M-258.5,400.2h0.4v-4.6c0-0.6,0.5-1.1,1.1-1.1
	h4.2c0.6,0,1.1,0.5,1.1,1.1v4.6h0.4c0.6,0,1.1,0.5,1.1,1.1s-0.5,1.1-1.1,1.1h-7c-0.6,0-1.1-0.5-1.1-1.1
	C-259.6,400.7-259.1,400.2-258.5,400.2z M-256.1,400.2h2.1v-3.6h-2.1V400.2z M-258.5,411.6h0.4V407c0-0.6,0.5-1.1,1.1-1.1h4.2
	c0.6,0,1.1,0.5,1.1,1.1v4.6h0.4c0.6,0,1.1,0.5,1.1,1.1c0,0.6-0.5,1.1-1.1,1.1h-7c-0.6,0-1.1-0.5-1.1-1.1
	C-259.6,412.1-259.1,411.6-258.5,411.6z M-256.1,411.6h2.1V408h-2.1V411.6z M-255,390.9c-1.7,0-3.2-1.4-3.2-3.2
	c0-1.8,1.4-3.2,3.2-3.2s3.2,1.4,3.2,3.2C-251.8,389.5-253.3,390.9-255,390.9z M-255,386.7c-0.6,0-1.1,0.5-1.1,1.1
	c0,0.6,0.5,1.1,1.1,1.1c0.6,0,1.1-0.5,1.1-1.1C-253.9,387.1-254.4,386.7-255,386.7z M-247.3,400.2h0.4v-4.6c0-0.6,0.5-1.1,1.1-1.1
	h4.2c0.6,0,1.1,0.5,1.1,1.1v4.6h0.4c0.6,0,1.1,0.5,1.1,1.1c0,0.6-0.5,1.1-1.1,1.1h-7c-0.6,0-1.1-0.5-1.1-1.1
	C-248.3,400.7-247.8,400.2-247.3,400.2z M-244.8,400.2h2.1v-3.6h-2.1V400.2z M-247.3,411.6h0.4V407c0-0.6,0.5-1.1,1.1-1.1h4.2
	c0.6,0,1.1,0.5,1.1,1.1v4.6h0.4c0.6,0,1.1,0.5,1.1,1.1c0,0.6-0.5,1.1-1.1,1.1h-7c-0.6,0-1.1-0.5-1.1-1.1
	C-248.3,412.1-247.8,411.6-247.3,411.6z M-244.8,411.6h2.1V408h-2.1V411.6z"/>
</svg>
