<?xml version="1.0" encoding="utf-8"?>
<!-- Generator: Adobe Illustrator 19.0.0, SVG Export Plug-In . SVG Version: 6.00 Build 0)  -->
<svg version="1.1" id="Layer_1" xmlns="http://www.w3.org/2000/svg" xmlns:xlink="http://www.w3.org/1999/xlink" x="0px" y="0px"
	 width="62px" height="57px" viewBox="-274 368 62 57" style="enable-background:new -274 368 62 57;" xml:space="preserve">
<path style="fill:#343434;" d="M-215.5,397.1h-47.4c-1.9,0-3.5-1.5-3.5-3.5v-22.2c0-1.9,1.6-3.5,3.5-3.5h47.4c1.9,0,3.5,1.5,3.5,3.5
	v22.2C-212,395.5-213.6,397.1-215.5,397.1z M-215.5,394.4c0.4,0,0.8-0.3,0.8-0.8v-4.3c-2.5,0.5-4.4,2.5-4.7,5H-215.5z M-263.7,393.6
	c0,0.4,0.3,0.8,0.8,0.8h4c-0.3-2.5-2.3-4.6-4.7-5V393.6z M-262.9,370.7c-0.4,0-0.8,0.3-0.8,0.8v3.9c2.4-0.5,4.2-2.3,4.7-4.7H-262.9z
	 M-214.7,371.5c0-0.4-0.3-0.8-0.8-0.8h-3.9c0.5,2.4,2.3,4.2,4.7,4.7V371.5z M-214.7,378.1c-3.9-0.5-6.9-3.6-7.4-7.4h-34.1
	c-0.5,3.8-3.6,6.9-7.4,7.4v8.5c4,0.5,7.1,3.8,7.5,7.8h34c0.4-4,3.5-7.2,7.5-7.8V378.1z M-223.6,386.7c-2.3,0-4.2-1.9-4.2-4.1
	c0-2.3,1.9-4.1,4.2-4.1c2.3,0,4.2,1.9,4.2,4.1C-219.4,384.8-221.3,386.7-223.6,386.7z M-223.6,381.1c-0.8,0-1.5,0.7-1.5,1.4
	c0,0.8,0.7,1.4,1.5,1.4c0.8,0,1.5-0.6,1.5-1.4C-222.1,381.7-222.8,381.1-223.6,381.1z M-239.1,392.2c-5.3,0-9.7-4.3-9.7-9.6
	c0-5.3,4.3-9.6,9.7-9.6c5.3,0,9.7,4.3,9.7,9.6C-229.4,387.8-233.8,392.2-239.1,392.2z M-239.1,375.6c-3.8,0-7,3.1-7,6.9
	c0,3.8,3.1,6.9,7,6.9c3.8,0,7-3.1,7-6.9C-232.1,378.7-235.3,375.6-239.1,375.6z M-254.7,386.7c-2.3,0-4.2-1.9-4.2-4.1
	c0-2.3,1.9-4.1,4.2-4.1c2.3,0,4.2,1.9,4.2,4.1C-250.5,384.8-252.4,386.7-254.7,386.7z M-254.7,381.1c-0.8,0-1.5,0.7-1.5,1.4
	c0,0.8,0.7,1.4,1.5,1.4c0.8,0,1.5-0.6,1.5-1.4C-253.2,381.7-253.9,381.1-254.7,381.1z M-265.7,404.5c0.5-0.6,1.2-1.3,2.1-2.1
	c4.9-4.1,11.9-4,12.5-4h13.8c2.1,0,3.8,1.7,3.8,3.7v2.9c0,2.1-1.7,3.7-3.8,3.7h-5c0.3,0.5,0.7,1,1.5,1.4c1.2,0.6,5.3,1.2,7.5,1.1
	c2.6-0.2,6-0.9,9.3-1.5c2.4-0.5,4.7-1,6.5-1.2c1-0.1,2.1,0.2,2.9,0.9c0.9,0.8,1.4,2,1.4,3.2v3.4c0,1.2-0.5,3.3-3.8,4.1
	c-1.2,0.3-2.6,0.7-4.1,1.1c-3.2,0.9-6.8,1.9-9.7,2.3c-2.3,0.3-4.5,0.6-7.2,0.6c-3.7,0-8.5-0.5-16.1-1.9c-6.4-1.2-9.5-1.5-10.8-1.6v1
	c0,1.7-1.4,3.1-3.2,3.1h-4.5c-0.4,0-0.7-0.1-1-0.4c-0.3-0.3-0.4-0.6-0.4-1v-19c0-0.7,0.6-1.3,1.4-1.3h4.5
	C-267.2,403.3-266.3,403.8-265.7,404.5z M-265,418.1c1.6,0.1,4.8,0.5,11.3,1.7c12.7,2.4,17.1,2.1,22.4,1.3c2.7-0.4,6.2-1.4,9.3-2.2
	c1.5-0.4,2.9-0.8,4.2-1.1c1.8-0.4,1.8-1.2,1.8-1.5l0,0v-3.4c0-0.4-0.2-0.9-0.5-1.2c-0.2-0.1-0.4-0.3-0.8-0.3
	c-1.6,0.2-3.9,0.6-6.2,1.1c-3.4,0.7-6.9,1.4-9.6,1.6c-2.3,0.1-7-0.4-9-1.4c-2.1-1.1-2.9-2.7-3.1-3.8h-5.9c-0.7,0-1.4-0.6-1.4-1.3
	s0.6-1.3,1.4-1.3h13.8c0.6,0,1.1-0.5,1.1-1.1v-2.9c0-0.6-0.5-1.1-1.1-1.1h-13.8c0,0,0,0-0.1,0c-0.1,0-6.5-0.2-10.7,3.3
	c-1.8,1.6-2.7,2.8-3,3.5c0,0.1-0.1,0.1-0.1,0.2V418.1z M-267.7,421.9v-15.4c0-0.2-0.2-0.5-0.5-0.5h-3.1v16.3h3.1
	C-267.9,422.3-267.7,422.1-267.7,421.9L-267.7,421.9z"/>
</svg>
