<?xml version="1.0" encoding="utf-8"?>
<!-- Generator: Adobe Illustrator 19.0.0, SVG Export Plug-In . SVG Version: 6.00 Build 0)  -->
<svg version="1.1" id="Layer_1" xmlns="http://www.w3.org/2000/svg" xmlns:xlink="http://www.w3.org/1999/xlink" x="0px" y="0px"
	 width="58px" height="57px" viewBox="-276 368 58 57" style="enable-background:new -276 368 58 57;" xml:space="preserve">
<path style="fill:#343434;" d="M-218.2,408.3h-0.2c0,0.5-0.1,0.7-0.4,0.8c0,0,0,0,0,0l-28.2,15.8c-0.1,0.1-0.3,0.1-0.4,0.1h0h0
	c-0.1,0-0.3-0.1-0.4-0.1c0,0,0,0-0.1,0l-27.7-15.7l0,0c-0.3-0.2-0.4-0.3-0.4-1V408h0.2h0.2v-24.3c0,0-0.1,0-0.1-0.1c0,0,0,0,0,0
	c-0.2-0.1-0.2-0.2-0.2-0.3c0,0,0-0.1,0-0.1c0,0,0,0,0,0c0,0,0,0,0,0c0,0,0-0.1,0-0.1c0,0,0-0.1,0.1-0.1c0,0,0,0,0,0c0,0,0,0,0,0
	c0,0,0,0,0.1-0.1c0,0,0.1,0,0.1-0.1l0,0c0,0,0,0,0,0c0,0,0,0,0.1,0c0,0,0,0,0,0c0,0,0,0,0,0l27.7-14.7c0.1-0.1,0.3-0.1,0.4-0.1
	c0.1,0,0.3,0,0.4,0.1l9.8,5.1c0.1,0,0.1,0,0.2,0.1l1.9,1l16.4,8.5c0,0,0,0,0,0c0,0,0,0,0,0l0,0l0,0c0,0,0,0,0.1,0c0,0,0,0,0,0
	c0,0,0,0,0,0c0,0,0.1,0,0.1,0.1l0,0l0,0c0,0,0,0,0.1,0.1c0,0,0,0,0,0c0,0,0,0,0.1,0.1c0,0,0,0,0,0c0,0,0,0,0,0.1c0,0,0.1,0,0.1,0.1
	c0,0,0,0,0,0c0,0,0,0,0.1,0.1c0,0,0,0,0,0c0.1,0,0.2,0.1,0.2,0.2v0v24.6v0.2H-218.2z M-247.4,424.8
	C-247.4,424.8-247.4,424.8-247.4,424.8C-247.4,424.8-247.5,424.8-247.4,424.8C-247.5,424.8-247.4,424.8-247.4,424.8z M-273.9,408.1
	l25.5,14.5v-23l-25.5-14.5V408.1z M-247.5,368.2C-247.5,368.2-247.5,368.2-247.5,368.2c0.1,0,0.2,0,0.3,0.1
	C-247.2,368.2-247.4,368.2-247.5,368.2z M-247.5,369.9l-25.8,13.7l7.9,4.5l25.9-14L-247.5,369.9z M-236,375.8l-1.5-0.8l-25.8,14
	l7.8,4.3l25.8-14.2L-236,375.8z M-227.9,380.1l-26.1,14.4l6.5,3.7l26.4-14.5L-227.9,380.1z M-219.8,385.1l-21.7,11.8l-5.2,2.8v23.1
	l26.9-14.6V385.1z M-251.4,415.5c-0.2,0.1-0.5,0.1-0.6,0.1c-0.2,0-0.3,0-0.4-0.1l-19.5-11c-0.3-0.2-0.3-0.4-0.3-0.6c0,0,0-0.1,0-0.1
	v-12.8v-0.1c0-0.2,0-0.5,0.3-0.7c0.1-0.1,0.2-0.1,0.4-0.1c0.1,0,0.2,0,0.4,0.1l19.7,11c0.2,0.1,0.6,0.4,0.6,0.8v12.8
	C-250.8,415.1-251.2,415.4-251.4,415.5z M-252.6,413.2v-10.7l-17.8-10v10.8L-252.6,413.2z M-271.5,390.2L-271.5,390.2
	c0.1,0,0.2,0,0.3,0.1C-271.3,390.3-271.4,390.2-271.5,390.2z"/>
</svg>
