<?xml version="1.0" encoding="utf-8"?>
<!-- Generator: Adobe Illustrator 19.0.0, SVG Export Plug-In . SVG Version: 6.00 Build 0)  -->
<svg version="1.1" id="Layer_1" xmlns="http://www.w3.org/2000/svg" xmlns:xlink="http://www.w3.org/1999/xlink" x="0px" y="0px"
	 width="49px" height="61px" viewBox="-281 366 49 61" style="enable-background:new -281 366 49 61;" xml:space="preserve">
<path style="fill:#343434;" d="M-233.1,414h-2.1v8.3c0,2.6-2.1,4.7-4.7,4.7h-40c-0.6,0-1.1-0.5-1.1-1.1v-38.4c0-0.6,0.5-1.1,1.1-1.1
	h2.8l15.6-20c0.4-0.5,1-0.5,1.5-0.2l3.7,2.9l6.3-2.1c0.3-0.1,0.6-0.1,0.8,0.1c0.3,0.1,0.4,0.3,0.5,0.6l3.3,9.9l6.1,4.7
	c0.5,0.4,0.6,1,0.2,1.5l-2,2.6h1.2c2.6,0,4.7,2.1,4.7,4.7v8.3h2.1c0.6,0,1.1,0.5,1.1,1.1v12.4C-232,413.5-232.5,414-233.1,414z
	 M-260.5,368.6l-2.4,3.1c0.7,0.3,1.5,0.5,2.3,0.5c1.2,0,2.4-0.4,3.3-1.2L-260.5,368.6z M-250.4,369.4l-3.9,1.3l5.9,4.6L-250.4,369.4
	z M-255.7,372.3c-1.4,1.3-3.1,2-5,2c-1.3,0-2.5-0.3-3.6-0.9l-10.1,13h28c-0.5-1-0.8-2.1-0.8-3.3c0-1.3,0.3-2.5,0.9-3.6L-255.7,372.3
	z M-244.6,380.9c-0.3,0.7-0.5,1.5-0.5,2.2c0,1.2,0.4,2.3,1.2,3.3h0.1l2.4-3.1L-244.6,380.9z M-237.3,391.2c0-1.4-1.2-2.6-2.6-2.6
	h-39v36.3h39c1.4,0,2.6-1.2,2.6-2.6V414h-10.1c-0.6,0-1.1-0.5-1.1-1.1v-12.4c0-0.6,0.5-1.1,1.1-1.1h10.1V391.2z M-234.1,401.6h-12.2
	v10.2h12.2V401.6z M-240.2,403.5c1.8,0,3.2,1.4,3.2,3.2s-1.4,3.2-3.2,3.2c-1.8,0-3.2-1.4-3.2-3.2S-242,403.5-240.2,403.5z
	 M-240.2,407.8c0.6,0,1.1-0.5,1.1-1.1c0-0.6-0.5-1.1-1.1-1.1c-0.6,0-1.1,0.5-1.1,1.1C-241.3,407.3-240.8,407.8-240.2,407.8z"/>
</svg>
