<svg xmlns="http://www.w3.org/2000/svg" height="116" viewBox="0 0 233 116" width="233"><svg height="53" viewBox="-272 370 66 53" width="66" x="2" y="2"><path d="M-206 384.6l-3.3 34.7c-.2 2.1-2.2 3.7-4.4 3.7h-.4l-50.8-5.6c-2.3-.2-3.9-2.1-3.9-4.3-1.8-.5-3.2-2.2-3.2-4.1v-34.7c0-2.4 2-4.3 4.4-4.3h50.6c2.4 0 4.4 1.9 4.4 4.3v5.2l2.6.3c1.2.1 2.2.6 3 1.6.8.9 1.1 2.1 1 3.2zm-8.8-10.3c0-1.2-1-2.2-2.2-2.2h-50.6c-1.2 0-2.2 1-2.2 2.2v1.1h55v-1.1zm0 6.1v-2.8h-55v6.5h55v-3.7zm0 5.8h-55v22.7c0 1.2 1 2.2 2.2 2.2h50.6c1.2 0 2.2-1 2.2-2.2v-22.7zm6.1-3.7c-.3-.4-.9-.8-1.4-.8l-2.5-.2V408.9c0 2.4-2 4.3-4.4 4.3h-49.6c.1 1 .9 1.8 2 1.9l50.7 5.6c1.2.1 2.3-.8 2.4-1.9l3.3-34.7c.1-.5-.1-1.1-.5-1.6zm-10.5 24.3h-17.6c-.7 0-1.1-.4-1.1-1.1V396c0-.6.4-1.1 1.1-1.1h17.6c.7 0 1.1.4 1.1 1.1v9.7c0 .6-.5 1.1-1.1 1.1zm-1.1-9.8h-15.4v7.6h15.4V397zm-24.2-4.3h-8.8c-.7 0-1.1-.4-1.1-1.1 0-.6.4-1.1 1.1-1.1h8.8c.7 0 1.1.4 1.1 1.1 0 .7-.4 1.1-1.1 1.1zm-13.2 0h-8.8c-.7 0-1.1-.4-1.1-1.1 0-.6.4-1.1 1.1-1.1h8.8c.7 0 1.1.4 1.1 1.1 0 .7-.4 1.1-1.1 1.1zm-8.8 2.2h14.3c.7 0 1.1.4 1.1 1.1 0 .6-.4 1.1-1.1 1.1h-14.3c-.7 0-1.1-.4-1.1-1.1 0-.7.4-1.1 1.1-1.1zm18.7 0h3.3c.7 0 1.1.4 1.1 1.1 0 .6-.4 1.1-1.1 1.1h-3.3c-.7 0-1.1-.4-1.1-1.1 0-.7.4-1.1 1.1-1.1z" fill="#343434"/></svg><svg height="57" viewBox="-274 368 62 57" width="62" x="2" y="57"><path d="M-215.5 397.1h-47.4c-1.9 0-3.5-1.5-3.5-3.5v-22.2c0-1.9 1.6-3.5 3.5-3.5h47.4c1.9 0 3.5 1.5 3.5 3.5v22.2c0 1.9-1.6 3.5-3.5 3.5zm0-2.7c.4 0 .8-.3.8-.8v-4.3c-2.5.5-4.4 2.5-4.7 5h3.9zm-48.2-.8c0 .4.3.8.8.8h4c-.3-2.5-2.3-4.6-4.7-5v4.2zm.8-22.9c-.4 0-.8.3-.8.8v3.9c2.4-.5 4.2-2.3 4.7-4.7h-3.9zm48.2.8c0-.4-.3-.8-.8-.8h-3.9c.5 2.4 2.3 4.2 4.7 4.7v-3.9zm0 6.6c-3.9-.5-6.9-3.6-7.4-7.4h-34.1c-.5 3.8-3.6 6.9-7.4 7.4v8.5c4 .5 7.1 3.8 7.5 7.8h34c.4-4 3.5-7.2 7.5-7.8v-8.5zm-8.9 8.6c-2.3 0-4.2-1.9-4.2-4.1 0-2.3 1.9-4.1 4.2-4.1 2.3 0 4.2 1.9 4.2 4.1 0 2.2-1.9 4.1-4.2 4.1zm0-5.6c-.8 0-1.5.7-1.5 1.4 0 .8.7 1.4 1.5 1.4s1.5-.6 1.5-1.4c0-.8-.7-1.4-1.5-1.4zm-15.5 11.1c-5.3 0-9.7-4.3-9.7-9.6s4.3-9.6 9.7-9.6c5.3 0 9.7 4.3 9.7 9.6 0 5.2-4.4 9.6-9.7 9.6zm0-16.6c-3.8 0-7 3.1-7 6.9 0 3.8 3.1 6.9 7 6.9 3.8 0 7-3.1 7-6.9 0-3.8-3.2-6.9-7-6.9zm-15.6 11.1c-2.3 0-4.2-1.9-4.2-4.1 0-2.3 1.9-4.1 4.2-4.1 2.3 0 4.2 1.9 4.2 4.1 0 2.2-1.9 4.1-4.2 4.1zm0-5.6c-.8 0-1.5.7-1.5 1.4 0 .8.7 1.4 1.5 1.4s1.5-.6 1.5-1.4c0-.8-.7-1.4-1.5-1.4zm-11 23.4c.5-.6 1.2-1.3 2.1-2.1 4.9-4.1 11.9-4 12.5-4h13.8c2.1 0 3.8 1.7 3.8 3.7v2.9c0 2.1-1.7 3.7-3.8 3.7h-5c.3.5.7 1 1.5 1.4 1.2.6 5.3 1.2 7.5 1.1 2.6-.2 6-.9 9.3-1.5 2.4-.5 4.7-1 6.5-1.2 1-.1 2.1.2 2.9.9.9.8 1.4 2 1.4 3.2v3.4c0 1.2-.5 3.3-3.8 4.1-1.2.3-2.6.7-4.1 1.1-3.2.9-6.8 1.9-9.7 2.3-2.3.3-4.5.6-7.2.6-3.7 0-8.5-.5-16.1-1.9-6.4-1.2-9.5-1.5-10.8-1.6v1c0 1.7-1.4 3.1-3.2 3.1h-4.5c-.4 0-.7-.1-1-.4-.3-.3-.4-.6-.4-1v-19c0-.7.6-1.3 1.4-1.3h4.5c.9.3 1.8.8 2.4 1.5zm.7 13.6c1.6.1 4.8.5 11.3 1.7 12.7 2.4 17.1 2.1 22.4 1.3 2.7-.4 6.2-1.4 9.3-2.2 1.5-.4 2.9-.8 4.2-1.1 1.8-.4 1.8-1.2 1.8-1.5v-3.4c0-.4-.2-.9-.5-1.2-.2-.1-.4-.3-.8-.3-1.6.2-3.9.6-6.2 1.1-3.4.7-6.9 1.4-9.6 1.6-2.3.1-7-.4-9-1.4-2.1-1.1-2.9-2.7-3.1-3.8h-5.9c-.7 0-1.4-.6-1.4-1.3s.6-1.3 1.4-1.3h13.8c.6 0 1.1-.5 1.1-1.1v-2.9c0-.6-.5-1.1-1.1-1.1h-13.8-.1c-.1 0-6.5-.2-10.7 3.3-1.8 1.6-2.7 2.8-3 3.5 0 .1-.1.1-.1.2v9.9zm-2.7 3.8v-15.4c0-.2-.2-.5-.5-.5h-3.1v16.3h3.1c.3 0 .5-.2.5-.4z" fill="#343434"/></svg><svg height="62" viewBox="-280 366 50 62" width="50" x="70" y="2"><path d="M-233.8 395.6c-.1.1-.3.2-.4.3V419c1.2.4 2.1 1.6 2.1 3 0 .2 0 .5-.1.7.5.6.8 1.3.8 2.1 0 .4-.1.7-.2 1.1h.5c.6 0 1.1.5 1.1 1.1 0 .6-.5 1.1-1.1 1.1H-279c-.6 0-1.1-.5-1.1-1.1 0-.6.5-1.1 1.1-1.1h.5c-.1-.3-.2-.7-.2-1.1 0-.8.3-1.5.8-2.1-.1-.2-.1-.5-.1-.7 0-1.4.9-2.6 2.1-3v-23.1c-.1-.1-.3-.1-.4-.3l-3.5-3.6c-.4-.4-.4-1.1 0-1.5l3.9-4v-8.1c0-.6.5-1.1 1.1-1.1h4.2c.6 0 1.1.5 1.1 1.1v1.7l13.7-13.9c.4-.4 1.1-.4 1.5 0l23.9 24.2c.4.4.4 1.1 0 1.5l-3.4 3.7zm-7.8 30.3h7c.6 0 1.1-.5 1.1-1.1 0-.4-.2-.7-.5-.9-.5-.3-.6-.9-.4-1.4.1-.2.1-.3.1-.5 0-.6-.5-1.1-1.1-1.1-.3 0-.6.1-.7.3-.4.4-1 .4-1.4 0-.1-.1-.4-.3-.7-.3-.3 0-.6.1-.7.3-.4.4-1 .4-1.4 0-.1-.1-.4-.3-.7-.3-.6 0-1.1.5-1.1 1.1 0 .2 0 .4.1.5.3.5.1 1.1-.4 1.4-.3.2-.5.5-.5.9.2.6.7 1.1 1.3 1.1zm-16.6 0h2.1v-3.2c0-.6.5-1.1 1.1-1.1.6 0 1.1.5 1.1 1.1v3.2h2.1v-6.4h-6.3v6.4zm-7.8-3.2c.5.6.8 1.3.8 2.1 0 .4-.1.7-.2 1.1h5.1v-7.5c0-.6.5-1.1 1.1-1.1h8.4c.6 0 1.1.5 1.1 1.1v7.5h5.1c-.1-.3-.2-.7-.2-1.1 0-.8.3-1.5.8-2.1-.1-.2-.1-.5-.1-.7 0-1.8 1.4-3.2 3.2-3.2.5 0 1 .1 1.4.3.4-.2.9-.3 1.4-.3s1 .1 1.4.3c.1-.1.2-.1.4-.2v-24.3l-18.7-18.9-18.7 18.9v24.3c.1 0 .2.1.4.2.4-.2.9-.3 1.4-.3.5 0 1 .1 1.4.3.4-.2.9-.3 1.4-.3 1.7 0 3.2 1.4 3.2 3.2 0 .2 0 .4-.1.7zm-10 1.2c-.3.2-.5.5-.5.9 0 .6.5 1.1 1.1 1.1h7c.6 0 1.1-.5 1.1-1.1 0-.4-.2-.7-.5-.9-.5-.3-.6-.9-.4-1.4.1-.2.1-.3.1-.5 0-.6-.5-1.1-1.1-1.1-.3 0-.6.1-.7.3-.4.4-1 .4-1.4 0-.1-.1-.4-.3-.7-.3-.3 0-.6.1-.7.3-.4.4-1 .4-1.4 0-.1-.1-.4-.3-.7-.3-.6 0-1.1.5-1.1 1.1 0 .2 0 .4.1.5.4.5.3 1.1-.2 1.4zm4.4-44.4h-2.1v4.9l2.1-2.1v-2.8zm16.6-10.9l-14.7 14.9-4.2 4.3-3.5 3.5 2 2.1 19.7-19.9c.2-.2.5-.3.7-.3s.5.1.7.3l19.7 19.9 2-2.1-22.4-22.7zm-15.7 44.1c0-.6.5-1.1 1.1-1.1h.4V407c0-.6.5-1.1 1.1-1.1h4.2c.6 0 1.1.5 1.1 1.1v4.6h.4c.6 0 1.1.5 1.1 1.1 0 .6-.5 1.1-1.1 1.1h-7c-.8-.1-1.3-.5-1.3-1.1zm3.5-1.1h2.1V408h-2.1v3.6zm4.6-9.3h-7c-.6 0-1.1-.5-1.1-1.1 0-.6.5-1.1 1.1-1.1h.4v-4.6c0-.6.5-1.1 1.1-1.1h4.2c.6 0 1.1.5 1.1 1.1v4.6h.4c.6 0 1.1.5 1.1 1.1s-.7 1.1-1.3 1.1zm-2.5-5.7h-2.1v3.6h2.1v-3.6zm6.6 3.6h.4v-4.6c0-.6.5-1.1 1.1-1.1h4.2c.6 0 1.1.5 1.1 1.1v4.6h.4c.6 0 1.1.5 1.1 1.1s-.5 1.1-1.1 1.1h-7c-.6 0-1.1-.5-1.1-1.1-.2-.6.3-1.1.9-1.1zm2.4 0h2.1v-3.6h-2.1v3.6zm-2.4 11.4h.4V407c0-.6.5-1.1 1.1-1.1h4.2c.6 0 1.1.5 1.1 1.1v4.6h.4c.6 0 1.1.5 1.1 1.1 0 .6-.5 1.1-1.1 1.1h-7c-.6 0-1.1-.5-1.1-1.1-.2-.6.3-1.1.9-1.1zm2.4 0h2.1V408h-2.1v3.6zm1.1-20.7c-1.7 0-3.2-1.4-3.2-3.2 0-1.8 1.4-3.2 3.2-3.2s3.2 1.4 3.2 3.2c0 1.8-1.5 3.2-3.2 3.2zm0-4.2c-.6 0-1.1.5-1.1 1.1 0 .6.5 1.1 1.1 1.1.6 0 1.1-.5 1.1-1.1 0-.7-.5-1.1-1.1-1.1zm7.7 13.5h.4v-4.6c0-.6.5-1.1 1.1-1.1h4.2c.6 0 1.1.5 1.1 1.1v4.6h.4c.6 0 1.1.5 1.1 1.1 0 .6-.5 1.1-1.1 1.1h-7c-.6 0-1.1-.5-1.1-1.1-.1-.6.4-1.1.9-1.1zm2.5 0h2.1v-3.6h-2.1v3.6zm-2.5 11.4h.4V407c0-.6.5-1.1 1.1-1.1h4.2c.6 0 1.1.5 1.1 1.1v4.6h.4c.6 0 1.1.5 1.1 1.1 0 .6-.5 1.1-1.1 1.1h-7c-.6 0-1.1-.5-1.1-1.1-.1-.6.4-1.1.9-1.1zm2.5 0h2.1V408h-2.1v3.6z" fill="#343434"/></svg><svg height="61" viewBox="-281 366 49 61" width="49" x="122" y="2"><path d="M-233.1 414h-2.1v8.3c0 2.6-2.1 4.7-4.7 4.7h-40c-.6 0-1.1-.5-1.1-1.1v-38.4c0-.6.5-1.1 1.1-1.1h2.8l15.6-20c.4-.5 1-.5 1.5-.2l3.7 2.9 6.3-2.1c.3-.1.6-.1.8.1.3.1.4.3.5.6l3.3 9.9 6.1 4.7c.5.4.6 1 .2 1.5l-2 2.6h1.2c2.6 0 4.7 2.1 4.7 4.7v8.3h2.1c.6 0 1.1.5 1.1 1.1v12.4c0 .6-.5 1.1-1.1 1.1zm-27.4-45.4l-2.4 3.1c.7.3 1.5.5 2.3.5 1.2 0 2.4-.4 3.3-1.2l-3.2-2.4zm10.1.8l-3.9 1.3 5.9 4.6-2-5.9zm-5.3 2.9c-1.4 1.3-3.1 2-5 2-1.3 0-2.5-.3-3.6-.9l-10.1 13h28c-.5-1-.8-2.1-.8-3.3 0-1.3.3-2.5.9-3.6l-9.4-7.2zm11.1 8.6c-.3.7-.5 1.5-.5 2.2 0 1.2.4 2.3 1.2 3.3h.1l2.4-3.1-3.2-2.4zm7.3 10.3c0-1.4-1.2-2.6-2.6-2.6h-39v36.3h39c1.4 0 2.6-1.2 2.6-2.6V414h-10.1c-.6 0-1.1-.5-1.1-1.1v-12.4c0-.6.5-1.1 1.1-1.1h10.1v-8.2zm3.2 10.4h-12.2v10.2h12.2v-10.2zm-6.1 1.9c1.8 0 3.2 1.4 3.2 3.2s-1.4 3.2-3.2 3.2c-1.8 0-3.2-1.4-3.2-3.2s1.4-3.2 3.2-3.2zm0 4.3c.6 0 1.1-.5 1.1-1.1 0-.6-.5-1.1-1.1-1.1-.6 0-1.1.5-1.1 1.1 0 .6.5 1.1 1.1 1.1z" fill="#343434"/></svg><svg height="57" viewBox="-276 368 58 57" width="58" x="173" y="2"><path d="M-218.2 408.3h-.2c0 .5-.1.7-.4.8l-28.2 15.8c-.1.1-.3.1-.4.1-.1 0-.3-.1-.4-.1h-.1l-27.7-15.7c-.3-.2-.4-.3-.4-1v-.2h.4v-24.3s-.1 0-.1-.1c-.2-.1-.2-.2-.2-.3v-.1-.1s0-.1.1-.1l.1-.1s.1 0 .1-.1h.1l27.7-14.7c.1-.1.3-.1.4-.1.1 0 .3 0 .4.1l9.8 5.1c.1 0 .1 0 .2.1l1.9 1 16.4 8.5h.1s.1 0 .1.1l.1.1.1.1v.1s.1 0 .1.1l.1.1c.1 0 .2.1.2.2v24.8h-.3zm-29.2 16.5s-.1 0 0 0c-.1 0 0 0 0 0zm-26.5-16.7l25.5 14.5v-23l-25.5-14.5v23zm26.4-39.9c.1 0 .2 0 .3.1 0-.1-.2-.1-.3-.1zm0 1.7l-25.8 13.7 7.9 4.5 25.9-14-8-4.2zm11.5 5.9l-1.5-.8-25.8 14 7.8 4.3 25.8-14.2-6.3-3.3zm8.1 4.3l-26.1 14.4 6.5 3.7 26.4-14.5-6.8-3.6zm8.1 5l-21.7 11.8-5.2 2.8v23.1l26.9-14.6v-23.1zm-31.6 30.4c-.2.1-.5.1-.6.1-.2 0-.3 0-.4-.1l-19.5-11c-.3-.2-.3-.4-.3-.6v-13c0-.2 0-.5.3-.7.1-.1.2-.1.4-.1.1 0 .2 0 .4.1l19.7 11c.2.1.6.4.6.8v12.8c0 .3-.4.6-.6.7zm-1.2-2.3v-10.7l-17.8-10v10.8l17.8 9.9zm-18.9-23c.1 0 .2 0 .3.1-.1 0-.2-.1-.3-.1z" fill="#343434"/></svg><svg height="36" viewBox="0 0 36 36" width="36" x="173" y="61"><defs><style>.cls-1 { fill: #00afd4; } .cls-1, .cls-2 { fill-rule: evenodd; } .cls-2 { fill: #fff; }</style></defs><path d="M36 18.004C36 27.944 27.94 36 18 36S0 27.943 0 18.004C0 8.064 8.06.008 18 .008s18 8.057 18 17.996z" class="cls-1"/><path d="M11.768 17.07L18 23.543l6.23-6.47-1.766-1.837L18 19.87l-4.464-4.635-1.768 1.836z" class="cls-2"/></svg></svg>